# xmcd
#
# Track frame offsets:
#	150
#	12450
#	21230
#	31397
#	43966
#	53804
#	65670
#	75369
#	88430
#
# Disc length: 1364 seconds
#
# Revision: 0
# Processed by: cddbd v1.5.1PL2 Copyright (c) Steve Scherf et al.
# Submitted via: dBpowerAMP V4.0
#
DISCID=76055209
DTITLE=Big Maybelle - The Same Old Story
DYEAR=2005
DGENRE=Blues
TTITLE0=Don't Let The Sun See You Crying
TTITLE1=Put Yourself In My Place
TTITLE2=I Will Never Turn My Back On You
TTITLE3=I Cried For You
TTITLE4=Only You
TTITLE5=That's All
TTITLE6=The Same Old Story
TTITLE7=I Won't Cry Anymore
TTITLE8=Oh Lord, Look What You're Doing To Me
EXTD=
EXTT0=
EXTT1=
EXTT2=
EXTT3=
EXTT4=
EXTT5=
EXTT6=
EXTT7=
EXTT8=
PLAYORDER=
